<svg width="30" height="30" viewBox="0 0 30 30" fill="none" xmlns="http://www.w3.org/2000/svg">
<path d="M15 0C6.7155 0 0 6.71576 0 15.0006C0 21.6353 4.3125 27.2545 10.2825 29.2331C11.01 29.3456 11.2875 28.9091 11.2875 28.5206C11.2875 28.1636 11.2695 26.983 11.2695 25.726C7.5 26.4205 6.525 24.8079 6.225 23.9634C5.89195 23.1431 5.36426 22.4161 4.6875 21.8453C4.1625 21.5633 3.4125 20.8703 4.668 20.8508C5.14786 20.9026 5.60813 21.0694 6.00976 21.3371C6.41138 21.6048 6.7425 21.9654 6.975 22.3883L6.9795 22.3974C7.18523 22.7649 7.46136 23.0882 7.79211 23.349C8.12286 23.6097 8.50175 23.8027 8.90712 23.9169C9.31249 24.0312 9.7364 24.0644 10.1546 24.0147C10.5728 23.965 10.9772 23.8334 11.3445 23.6274C11.409 22.8624 11.7495 22.1513 12.3 21.6203C8.9625 21.2453 5.475 19.9508 5.475 14.213C5.45413 12.7225 6.00422 11.2804 7.0125 10.1824C6.55396 8.88666 6.60762 7.46472 7.1625 6.20724C7.1625 6.20724 8.418 5.81272 11.2875 7.74479C13.7419 7.06969 16.3331 7.06969 18.7875 7.74479C21.6555 5.79472 22.9125 6.20724 22.9125 6.20724C23.4675 7.46428 23.5215 8.88634 23.0625 10.1824C24.0737 11.2786 24.6242 12.7219 24.6 14.213C24.6 19.9703 21.093 21.2453 17.757 21.6203C18.48 22.3553 18.8505 23.3664 18.7695 24.3954C18.7695 26.401 18.75 28.0136 18.75 28.5206C18.7485 28.6378 18.7748 28.7537 18.8269 28.8587C18.879 28.9637 18.9552 29.0548 19.0494 29.1245C19.1436 29.1943 19.2531 29.2406 19.3687 29.2598C19.4843 29.2789 19.6029 29.2703 19.7145 29.2346C25.686 27.256 30 21.6368 30 15.0006C30 6.71576 23.2845 0 15 0Z" fill="#5CA7FF"/>
<path d="M10.2802 29.2308C13.3416 30.2558 16.6535 30.2564 19.7152 29.2323C19.6036 29.2682 19.4851 29.277 19.3693 29.2581C19.2536 29.2392 19.1441 29.193 19.0497 29.1234C18.9554 29.0538 18.8789 28.9628 18.8267 28.8578C18.7744 28.7529 18.7479 28.637 18.7492 28.5197C18.7492 28.0127 18.7687 26.4001 18.7687 24.3946C18.8089 23.8864 18.7393 23.3756 18.5646 22.8968C18.3899 22.4179 18.1142 21.9823 17.7562 21.6195C21.0937 21.2445 24.5992 19.9694 24.5992 14.2122C24.6235 12.721 24.0729 11.2777 23.0617 10.1815C23.5203 8.88581 23.4666 7.46387 22.9117 6.20638C22.9117 6.20638 21.6547 5.79387 18.7867 7.74394C16.3323 7.06884 13.7412 7.06884 11.2867 7.74394C8.41722 5.81187 7.16172 6.20488 7.16172 6.20488C6.60669 7.46233 6.55304 8.88433 7.01172 10.18C6.00345 11.278 5.45336 12.7201 5.47422 14.2107C5.47422 19.9484 8.96172 21.243 12.2992 21.618C11.7479 22.1485 11.4078 22.8612 11.3422 23.6235C10.9749 23.8296 10.5706 23.9612 10.1523 24.0108C9.73412 24.0605 9.31022 24.0273 8.90484 23.9131C8.49947 23.7988 8.12059 23.6058 7.78983 23.3451C7.45908 23.0844 7.18295 22.761 6.97722 22.3935L6.97422 22.386C6.74162 21.9631 6.41048 21.6025 6.00888 21.3349C5.60727 21.0672 5.14704 20.9004 4.66722 20.8484C3.41172 20.8679 4.16172 21.561 4.68672 21.843C5.36322 22.413 5.89122 23.1405 6.22422 23.9611C6.52422 24.8056 7.49922 26.4181 11.2672 25.7236C11.2672 26.9807 11.2867 28.1612 11.2867 28.5182C11.2867 28.9067 11.0077 29.3448 10.2802 29.2308Z" fill="white"/>
</svg>
