<svg width="19" height="19" viewBox="0 0 19 19" fill="none" xmlns="http://www.w3.org/2000/svg">
<path d="M9.5 0C4.25315 0 0 4.25331 0 9.50036C0 13.7024 2.73125 17.2612 6.51225 18.5143C6.973 18.5856 7.14875 18.3091 7.14875 18.063C7.14875 17.8369 7.13735 17.0892 7.13735 16.2931C4.75 16.733 4.1325 15.7117 3.9425 15.1768C3.73157 14.6573 3.39737 14.1969 2.96875 13.8354C2.63625 13.6568 2.16125 13.2179 2.9564 13.2055C3.26031 13.2383 3.55182 13.344 3.80618 13.5135C4.06054 13.683 4.27025 13.9114 4.4175 14.1793L4.42035 14.185C4.55064 14.4177 4.72553 14.6225 4.935 14.7877C5.14448 14.9528 5.38444 15.075 5.64118 15.1474C5.89791 15.2197 6.16639 15.2408 6.43126 15.2093C6.69613 15.1778 6.9522 15.0945 7.18485 14.964C7.2257 14.4795 7.44135 14.0292 7.79 13.6929C5.67625 13.4554 3.4675 12.6355 3.4675 9.00159C3.45428 8.05756 3.80268 7.14423 4.44125 6.44885C4.15084 5.62822 4.18483 4.72766 4.53625 3.93125C4.53625 3.93125 5.3314 3.68139 7.14875 4.90504C8.70322 4.47747 10.3443 4.47747 11.8987 4.90504C13.7151 3.66999 14.5112 3.93125 14.5112 3.93125C14.8627 4.72738 14.8969 5.62801 14.6062 6.44885C15.2467 7.14309 15.5954 8.05718 15.58 9.00159C15.58 12.6478 13.3589 13.4554 11.2461 13.6929C11.704 14.1584 11.9386 14.7987 11.8873 15.4504C11.8873 16.7206 11.875 17.7419 11.875 18.063C11.874 18.1373 11.8907 18.2107 11.9237 18.2772C11.9567 18.3437 12.005 18.4014 12.0646 18.4455C12.1243 18.4897 12.1936 18.5191 12.2668 18.5312C12.3401 18.5433 12.4151 18.5378 12.4858 18.5153C16.2678 17.2622 19 13.7033 19 9.50036C19 4.25331 14.7468 0 9.5 0Z" fill="black"/>
<path d="M6.51133 18.5129C8.45021 19.1621 10.5477 19.1625 12.4868 18.5139C12.4161 18.5366 12.3411 18.5422 12.2678 18.5302C12.1945 18.5183 12.1251 18.489 12.0653 18.4449C12.0056 18.4009 11.9572 18.3432 11.9241 18.2767C11.891 18.2102 11.8742 18.1368 11.875 18.0626C11.875 17.7415 11.8874 16.7202 11.8874 15.45C11.9128 15.1282 11.8688 14.8047 11.7581 14.5014C11.6475 14.1981 11.4729 13.9222 11.2461 13.6924C13.3599 13.4549 15.58 12.6474 15.58 9.00115C15.5954 8.05674 15.2467 7.14264 14.6063 6.4484C14.8967 5.62778 14.8627 4.72721 14.5113 3.93081C14.5113 3.93081 13.7152 3.66955 11.8988 4.90459C10.3443 4.47703 8.70325 4.47703 7.14878 4.90459C5.33143 3.68095 4.53628 3.92986 4.53628 3.92986C4.18476 4.72624 4.15078 5.62684 4.44128 6.44745C3.8027 7.14284 3.45431 8.05617 3.46753 9.0002C3.46753 12.6341 5.67628 13.454 7.79003 13.6915C7.44084 14.0275 7.22547 14.4788 7.18393 14.9617C6.95128 15.0922 6.69521 15.1755 6.43034 15.207C6.16547 15.2384 5.89699 15.2174 5.64026 15.145C5.38352 15.0727 5.14356 14.9505 4.93408 14.7853C4.72461 14.6202 4.54972 14.4154 4.41943 14.1826L4.41753 14.1779C4.27022 13.9101 4.06049 13.6817 3.80614 13.5122C3.55179 13.3427 3.26032 13.237 2.95643 13.2041C2.16128 13.2165 2.63628 13.6554 2.96878 13.834C3.39723 14.195 3.73163 14.6558 3.94253 15.1754C4.13253 15.7103 4.75003 16.7316 7.13643 16.2917C7.13643 17.0879 7.14878 17.8355 7.14878 18.0616C7.14878 18.3077 6.97208 18.5851 6.51133 18.5129Z" fill="white"/>
</svg>
