<svg width="82" height="41" viewBox="0 0 82 41" fill="none" xmlns="http://www.w3.org/2000/svg">
<path d="M15.5352 20.6631L14.6562 22.5918L4.10938 0.570312H5.86719L15.5352 20.6631ZM17.293 16.8057L16.3896 18.7344L7.625 0.570312H9.38281L17.293 16.8057ZM19.0508 12.9727L18.1719 14.9014L11.1406 0.570312H12.8984L19.0508 12.9727ZM16.8291 27.377L29.5488 0.570312H31.3066L18.5869 27.377V41H16.8291V27.377ZM20.3447 27.377L33.0645 0.570312H34.8223L22.1025 27.377V41H20.3447V27.377ZM23.8604 27.377L36.5801 0.570312H38.3379L25.6182 27.377V41H23.8604V27.377ZM14.1924 25.5215L26.0332 0.570312H27.791L15.0713 27.377V41H13.3135V27.377L0.59375 0.570312H2.35156L14.1924 25.5215ZM80.1348 0.570312H81.8926V41H80.1348V0.570312ZM41.4629 0.570312H43.2207V41H41.4629V0.570312ZM76.6191 0.570312H78.377V41H76.6191V0.570312ZM73.1035 0.570312H74.8613V41H73.1035V0.570312ZM69.5879 0.570312H71.3457V41H69.5879V25.1553H53.7676V41H52.0098V0.570312H53.7676V16.3662H69.5879V0.570312ZM48.4941 0.570312H50.252V41H48.4941V0.570312ZM44.9785 0.570312H46.7363V41H44.9785V0.570312ZM69.5879 23.3975V21.6396H53.7676V23.3975H69.5879ZM69.5879 19.8818V18.124H53.7676V19.8818H69.5879Z" fill="black"/>
</svg>
