<svg width="20" height="16" viewBox="0 0 20 16" fill="none" xmlns="http://www.w3.org/2000/svg">
<path d="M19.7194 4.0293V12.5391C19.7194 13.2271 19.439 13.8891 18.9356 14.3896C18.4322 14.8902 17.7437 15.1915 17.0111 15.2318L16.8423 15.2363H3.41611C2.68226 15.2364 1.97613 14.9735 1.44221 14.5015C0.908277 14.0295 0.58691 13.3841 0.543858 12.6973L0.539062 12.5391V4.0293L9.59697 9.6908L9.70822 9.75014C9.83932 9.81019 9.98331 9.84141 10.1292 9.84141C10.2751 9.84141 10.4191 9.81019 10.5502 9.75014L10.6615 9.6908L19.7194 4.0293Z" fill="black"/>
<path d="M16.8433 0.851074C17.8791 0.851074 18.7872 1.36355 19.2936 2.13406L10.1302 7.8612L0.966797 2.13406C1.20725 1.76793 1.53762 1.46101 1.93033 1.23892C2.32304 1.01683 2.76671 0.886009 3.22432 0.857368L3.41708 0.851074H16.8433Z" fill="black"/>
</svg>
