<svg width="18" height="27" viewBox="0 0 18 27" fill="none" xmlns="http://www.w3.org/2000/svg">
<rect x="1.25781" y="1.25195" width="16.3235" height="25.0461" fill="white"/>
<path d="M15.3 0H2.7C1.215 0 0 1.13906 0 2.53125V24.4688C0 25.8609 1.215 27 2.7 27H15.3C16.785 27 18 25.8609 18 24.4688V2.53125C18 1.13906 16.785 0 15.3 0ZM5.4 1.26562H12.6V2.10938H5.4V1.26562ZM9 25.3125C8.52261 25.3125 8.06477 25.1347 7.72721 24.8182C7.38964 24.5018 7.2 24.0726 7.2 23.625C7.2 23.1774 7.38964 22.7482 7.72721 22.4318C8.06477 22.1153 8.52261 21.9375 9 21.9375C9.47739 21.9375 9.93523 22.1153 10.2728 22.4318C10.6104 22.7482 10.8 23.1774 10.8 23.625C10.8 24.0726 10.6104 24.5018 10.2728 24.8182C9.93523 25.1347 9.47739 25.3125 9 25.3125ZM16.2 20.25H1.8V3.375H16.2V20.25Z" fill="black"/>
</svg>
